<?xml version="1.0" encoding="UTF-8"?>
<svg width="179px" height="41px" viewBox="0 0 179 41" version="1.1" xmlns="http://www.w3.org/2000/svg" xmlns:xlink="http://www.w3.org/1999/xlink">
    <!-- Generator: Sketch 51 (57462) - http://www.bohemiancoding.com/sketch -->
    <title>An easier way to fol</title>
    <desc>Created with Sketch.</desc>
    <defs></defs>
    <g id="Portfolio" stroke="none" stroke-width="1" fill="none" fill-rule="evenodd">
        <g id="Desktop" transform="translate(-246.000000, -2012.000000)" fill="#9B9B9B">
            <path d="M249.289,2020.644 L253.987,2020.644 L253.717,2019.87 L251.665,2013.804 C251.508999,2014.284 250.807006,2016.31198 249.559,2019.888 L249.289,2020.644 Z M255.463,2025 L254.311,2021.634 L248.947,2021.634 L247.777,2025 L246.571,2025 L250.855,2012.868 L252.475,2012.868 L256.669,2025 L255.463,2025 Z M259.819,2015.874 L259.819,2017.44 C260.383003,2016.29999 261.348993,2015.73 262.717,2015.73 C263.593004,2015.73 264.294997,2016 264.823,2016.54 C265.351003,2017.08 265.615,2017.776 265.615,2018.628 L265.615,2025 L264.517,2025 L264.517,2018.97 C264.517,2018.262 264.337002,2017.722 263.977,2017.35 C263.616998,2016.978 263.143003,2016.792 262.555,2016.792 C261.810996,2016.792 261.169003,2017.077 260.629,2017.647 C260.088997,2018.217 259.819,2018.988 259.819,2019.96 L259.819,2025 L258.721,2025 L258.721,2015.874 L259.819,2015.874 Z M278.575,2019.924 L278.575,2019.51 C278.575,2018.682 278.344002,2018.022 277.882,2017.53 C277.419998,2017.038 276.799004,2016.792 276.019,2016.792 C275.250996,2016.792 274.609003,2017.062 274.093,2017.602 C273.576997,2018.142 273.277,2018.91599 273.193,2019.924 L278.575,2019.924 Z M279.133,2023.434 L279.133,2024.55 C278.412996,2024.91 277.573005,2025.09 276.613,2025.09 C275.256993,2025.09 274.156004,2024.667 273.31,2023.821 C272.463996,2022.975 272.041,2021.86201 272.041,2020.482 C272.041,2019.01799 272.412996,2017.866 273.157,2017.026 C273.901004,2016.186 274.866994,2015.766 276.055,2015.766 C277.171006,2015.766 278.058997,2016.132 278.719,2016.864 C279.379003,2017.596 279.709,2018.62799 279.709,2019.96 C279.709,2020.368 279.685,2020.692 279.637,2020.932 L273.193,2020.932 C273.277,2021.94001 273.624997,2022.711 274.237,2023.245 C274.849003,2023.779 275.658995,2024.046 276.667,2024.046 C277.699005,2024.046 278.520997,2023.842 279.133,2023.434 Z M286.963,2020.662 L285.181,2020.662 C284.328996,2020.662 283.693002,2020.827 283.273,2021.157 C282.852998,2021.487 282.643,2021.898 282.643,2022.39 C282.643,2022.894 282.807998,2023.302 283.138,2023.614 C283.468002,2023.926 283.950997,2024.082 284.587,2024.082 C285.307004,2024.082 285.882998,2023.884 286.315,2023.488 C286.747002,2023.092 286.963,2022.588 286.963,2021.976 L286.963,2020.662 Z M282.139,2017.548 L282.139,2016.36 C282.835003,2015.94 283.692995,2015.73 284.713,2015.73 C286.945011,2015.73 288.061,2016.89999 288.061,2019.24 L288.061,2025 L286.963,2025 L286.963,2023.938 C286.458997,2024.706 285.583006,2025.09 284.335,2025.09 C283.494996,2025.09 282.808003,2024.841 282.274,2024.343 C281.739997,2023.845 281.473,2023.206 281.473,2022.426 C281.473,2021.55 281.811997,2020.869 282.49,2020.383 C283.168003,2019.897 284.064994,2019.654 285.181,2019.654 L286.963,2019.654 L286.963,2019.24 C286.963,2018.424 286.789002,2017.809 286.441,2017.395 C286.092998,2016.981 285.511004,2016.774 284.695,2016.774 C283.746995,2016.774 282.895004,2017.032 282.139,2017.548 Z M295.459,2016.198 L295.459,2017.296 C294.894997,2016.972 294.133005,2016.81 293.173,2016.81 C292.644997,2016.81 292.228002,2016.933 291.922,2017.179 C291.615998,2017.425 291.463,2017.746 291.463,2018.142 C291.463,2018.382 291.508,2018.592 291.598,2018.772 C291.688,2018.952 291.843999,2019.117 292.066,2019.267 C292.288001,2019.417 292.476999,2019.528 292.633,2019.6 C292.789001,2019.672 293.040998,2019.78 293.389,2019.924 C294.229004,2020.26 294.873998,2020.629 295.324,2021.031 C295.774002,2021.433 295.999,2021.976 295.999,2022.66 C295.999,2023.416 295.738003,2024.013 295.216,2024.451 C294.693997,2024.889 293.977005,2025.108 293.065,2025.108 C291.960994,2025.108 291.073003,2024.928 290.401,2024.568 L290.401,2023.434 C291.205004,2023.89 292.068995,2024.118 292.993,2024.118 C293.605003,2024.118 294.069998,2023.992 294.388,2023.74 C294.706002,2023.488 294.865,2023.158 294.865,2022.75 C294.865,2022.27 294.700002,2021.898 294.37,2021.634 C294.039998,2021.37 293.497004,2021.088 292.741,2020.788 C292.008996,2020.5 291.427002,2020.164 290.995,2019.78 C290.562998,2019.396 290.347,2018.868 290.347,2018.196 C290.347,2017.464 290.616997,2016.879 291.157,2016.441 C291.697003,2016.003 292.374996,2015.784 293.191,2015.784 C294.175005,2015.784 294.930997,2015.922 295.459,2016.198 Z M298.069,2025 L298.069,2015.874 L299.167,2015.874 L299.167,2025 L298.069,2025 Z M298.069,2013.498 C297.924999,2013.354 297.853,2013.174 297.853,2012.958 C297.853,2012.742 297.924999,2012.559 298.069,2012.409 C298.213001,2012.259 298.392999,2012.184 298.609,2012.184 C298.825001,2012.184 299.007999,2012.259 299.158,2012.409 C299.308001,2012.559 299.383,2012.742 299.383,2012.958 C299.383,2013.174 299.308001,2013.354 299.158,2013.498 C299.007999,2013.642 298.825001,2013.714 298.609,2013.714 C298.392999,2013.714 298.213001,2013.642 298.069,2013.498 Z M307.951,2019.924 L307.951,2019.51 C307.951,2018.682 307.720002,2018.022 307.258,2017.53 C306.795998,2017.038 306.175004,2016.792 305.395,2016.792 C304.626996,2016.792 303.985003,2017.062 303.469,2017.602 C302.952997,2018.142 302.653,2018.91599 302.569,2019.924 L307.951,2019.924 Z M308.509,2023.434 L308.509,2024.55 C307.788996,2024.91 306.949005,2025.09 305.989,2025.09 C304.632993,2025.09 303.532004,2024.667 302.686,2023.821 C301.839996,2022.975 301.417,2021.86201 301.417,2020.482 C301.417,2019.01799 301.788996,2017.866 302.533,2017.026 C303.277004,2016.186 304.242994,2015.766 305.431,2015.766 C306.547006,2015.766 307.434997,2016.132 308.095,2016.864 C308.755003,2017.596 309.085,2018.62799 309.085,2019.96 C309.085,2020.368 309.061,2020.692 309.013,2020.932 L302.569,2020.932 C302.653,2021.94001 303.000997,2022.711 303.613,2023.245 C304.225003,2023.779 305.034995,2024.046 306.043,2024.046 C307.075005,2024.046 307.896997,2023.842 308.509,2023.434 Z M312.415,2015.874 L312.415,2017.422 C312.919003,2016.31799 313.770994,2015.766 314.971,2015.766 C315.055,2015.766 315.204999,2015.778 315.421,2015.802 L315.421,2016.918 C315.180999,2016.846 314.941001,2016.81 314.701,2016.81 C314.052997,2016.81 313.510002,2017.131 313.072,2017.773 C312.633998,2018.415 312.415,2019.126 312.415,2019.906 L312.415,2025 L311.317,2025 L311.317,2015.874 L312.415,2015.874 Z M323.287,2025 L320.497,2015.874 L321.703,2015.874 L322.603,2018.898 C322.939002,2020.02601 323.223999,2021.007 323.458,2021.841 C323.692001,2022.675 323.845,2023.224 323.917,2023.488 L324.007,2023.902 C324.223001,2023.122 324.702996,2021.44801 325.447,2018.88 L326.311,2015.874 L327.607,2015.874 L328.507,2018.88 L329.983,2023.938 C330.175001,2023.23 330.684996,2021.54401 331.513,2018.88 L332.449,2015.874 L333.601,2015.874 L330.721,2025 L329.245,2025 L328.363,2022.012 L326.959,2017.152 C326.754999,2017.908 326.305003,2019.52799 325.609,2022.012 L324.763,2025 L323.287,2025 Z M340.531,2020.662 L338.749,2020.662 C337.896996,2020.662 337.261002,2020.827 336.841,2021.157 C336.420998,2021.487 336.211,2021.898 336.211,2022.39 C336.211,2022.894 336.375998,2023.302 336.706,2023.614 C337.036002,2023.926 337.518997,2024.082 338.155,2024.082 C338.875004,2024.082 339.450998,2023.884 339.883,2023.488 C340.315002,2023.092 340.531,2022.588 340.531,2021.976 L340.531,2020.662 Z M335.707,2017.548 L335.707,2016.36 C336.403003,2015.94 337.260995,2015.73 338.281,2015.73 C340.513011,2015.73 341.629,2016.89999 341.629,2019.24 L341.629,2025 L340.531,2025 L340.531,2023.938 C340.026997,2024.706 339.151006,2025.09 337.903,2025.09 C337.062996,2025.09 336.376003,2024.841 335.842,2024.343 C335.307997,2023.845 335.041,2023.206 335.041,2022.426 C335.041,2021.55 335.379997,2020.869 336.058,2020.383 C336.736003,2019.897 337.632994,2019.654 338.749,2019.654 L340.531,2019.654 L340.531,2019.24 C340.531,2018.424 340.357002,2017.809 340.009,2017.395 C339.660998,2016.981 339.079004,2016.774 338.263,2016.774 C337.314995,2016.774 336.463004,2017.032 335.707,2017.548 Z M346.777,2024.748 L343.051,2015.874 L344.311,2015.874 L345.553,2018.934 L347.317,2023.326 C347.401,2023.05 347.922995,2021.58601 348.883,2018.934 L349.999,2015.874 L351.223,2015.874 L347.911,2024.766 C347.454998,2026.00201 346.915003,2026.854 346.291,2027.322 C345.666997,2027.79 344.959004,2028.024 344.167,2028.024 C343.926999,2028.024 343.699001,2027.994 343.483,2027.934 L343.483,2026.854 C343.699001,2026.914 343.902999,2026.944 344.095,2026.944 C345.379006,2026.944 346.272997,2026.21201 346.777,2024.748 Z M358.981,2016.81 L358.981,2022.48 C358.981,2023.52401 359.466995,2024.046 360.439,2024.046 C360.919002,2024.046 361.326998,2023.908 361.663,2023.632 L361.663,2024.748 C361.314998,2024.976 360.913002,2025.09 360.457,2025.09 C358.728991,2025.09 357.865,2024.20201 357.865,2022.426 L357.865,2016.81 L356.371,2016.81 L356.371,2015.874 L357.865,2015.874 L357.865,2013.588 L358.981,2013.588 L358.981,2015.874 L361.591,2015.874 L361.591,2016.81 L358.981,2016.81 Z M367.477,2025.162 C366.192994,2025.162 365.173004,2024.718 364.417,2023.83 C363.660996,2022.942 363.283,2021.82601 363.283,2020.482 C363.283,2019.14999 363.672996,2018.028 364.453,2017.116 C365.233004,2016.204 366.240994,2015.748 367.477,2015.748 C368.833007,2015.748 369.885996,2016.195 370.636,2017.089 C371.386004,2017.983 371.761,2019.11399 371.761,2020.482 C371.761,2021.83801 371.380004,2022.957 370.618,2023.839 C369.855996,2024.721 368.809007,2025.162 367.477,2025.162 Z M367.477,2016.792 C366.528995,2016.792 365.785003,2017.152 365.245,2017.872 C364.704997,2018.592 364.435,2019.46199 364.435,2020.482 C364.435,2021.478 364.713997,2022.333 365.272,2023.047 C365.830003,2023.761 366.564995,2024.118 367.477,2024.118 C368.473005,2024.118 369.243997,2023.767 369.79,2023.065 C370.336003,2022.363 370.609,2021.50201 370.609,2020.482 C370.609,2019.42599 370.351003,2018.547 369.835,2017.845 C369.318997,2017.143 368.533005,2016.792 367.477,2016.792 Z M382.345,2012.292 L382.345,2013.372 C382.092999,2013.276 381.829001,2013.228 381.553,2013.228 C381.192998,2013.228 380.884001,2013.369 380.626,2013.651 C380.367999,2013.933 380.239,2014.356 380.239,2014.92 L380.239,2015.874 L382.327,2015.874 L382.327,2016.81 L380.239,2016.81 L380.239,2025 L379.141,2025 L379.141,2016.81 L377.467,2016.81 L377.467,2015.874 L379.141,2015.874 L379.141,2014.902 C379.141,2014.074 379.356998,2013.414 379.789,2012.922 C380.221002,2012.43 380.826996,2012.184 381.607,2012.184 C381.835001,2012.184 382.080999,2012.22 382.345,2012.292 Z M387.781,2025.162 C386.496994,2025.162 385.477004,2024.718 384.721,2023.83 C383.964996,2022.942 383.587,2021.82601 383.587,2020.482 C383.587,2019.14999 383.976996,2018.028 384.757,2017.116 C385.537004,2016.204 386.544994,2015.748 387.781,2015.748 C389.137007,2015.748 390.189996,2016.195 390.94,2017.089 C391.690004,2017.983 392.065,2019.11399 392.065,2020.482 C392.065,2021.83801 391.684004,2022.957 390.922,2023.839 C390.159996,2024.721 389.113007,2025.162 387.781,2025.162 Z M387.781,2016.792 C386.832995,2016.792 386.089003,2017.152 385.549,2017.872 C385.008997,2018.592 384.739,2019.46199 384.739,2020.482 C384.739,2021.478 385.017997,2022.333 385.576,2023.047 C386.134003,2023.761 386.868995,2024.118 387.781,2024.118 C388.777005,2024.118 389.547997,2023.767 390.094,2023.065 C390.640003,2022.363 390.913,2021.50201 390.913,2020.482 C390.913,2019.42599 390.655003,2018.547 390.139,2017.845 C389.622997,2017.143 388.837005,2016.792 387.781,2016.792 Z M394.315,2025 L394.315,2012.274 L395.413,2012.274 L395.413,2025 L394.315,2025 Z M398.293,2025 L398.293,2012.274 L399.391,2012.274 L399.391,2025 L398.293,2025 Z M405.835,2025.162 C404.550994,2025.162 403.531004,2024.718 402.775,2023.83 C402.018996,2022.942 401.641,2021.82601 401.641,2020.482 C401.641,2019.14999 402.030996,2018.028 402.811,2017.116 C403.591004,2016.204 404.598994,2015.748 405.835,2015.748 C407.191007,2015.748 408.243996,2016.195 408.994,2017.089 C409.744004,2017.983 410.119,2019.11399 410.119,2020.482 C410.119,2021.83801 409.738004,2022.957 408.976,2023.839 C408.213996,2024.721 407.167007,2025.162 405.835,2025.162 Z M405.835,2016.792 C404.886995,2016.792 404.143003,2017.152 403.603,2017.872 C403.062997,2018.592 402.793,2019.46199 402.793,2020.482 C402.793,2021.478 403.071997,2022.333 403.63,2023.047 C404.188003,2023.761 404.922995,2024.118 405.835,2024.118 C406.831005,2024.118 407.601997,2023.767 408.148,2023.065 C408.694003,2022.363 408.967,2021.50201 408.967,2020.482 C408.967,2019.42599 408.709003,2018.547 408.193,2017.845 C407.676997,2017.143 406.891005,2016.792 405.835,2016.792 Z M414.259,2025 L411.469,2015.874 L412.675,2015.874 L413.575,2018.898 C413.911002,2020.02601 414.195999,2021.007 414.43,2021.841 C414.664001,2022.675 414.817,2023.224 414.889,2023.488 L414.979,2023.902 C415.195001,2023.122 415.674996,2021.44801 416.419,2018.88 L417.283,2015.874 L418.579,2015.874 L419.479,2018.88 L420.955,2023.938 C421.147001,2023.23 421.656996,2021.54401 422.485,2018.88 L423.421,2015.874 L424.573,2015.874 L421.693,2025 L420.217,2025 L419.335,2022.012 L417.931,2017.152 C417.726999,2017.908 417.277003,2019.52799 416.581,2022.012 L415.735,2025 L414.259,2025 Z M285.802,2044.482 C285.802,2045.51401 286.119997,2046.384 286.756,2047.092 C287.392003,2047.8 288.297994,2048.154 289.474,2048.154 C290.206004,2048.154 290.829997,2047.962 291.346,2047.578 L291.346,2048.694 C290.829997,2049.042 290.164004,2049.216 289.348,2049.216 C287.871993,2049.216 286.720004,2048.751 285.892,2047.821 C285.063996,2046.891 284.65,2045.77201 284.65,2044.464 C284.65,2043.19199 285.072996,2042.082 285.919,2041.134 C286.765004,2040.186 287.907993,2039.712 289.348,2039.712 C290.092004,2039.712 290.757997,2039.874 291.346,2040.198 L291.346,2041.314 C290.805997,2040.954 290.176004,2040.774 289.456,2040.774 C288.339994,2040.774 287.452003,2041.137 286.792,2041.863 C286.131997,2042.589 285.802,2043.46199 285.802,2044.482 Z M294.802,2039.874 L294.802,2041.422 C295.306003,2040.31799 296.157994,2039.766 297.358,2039.766 C297.442,2039.766 297.591999,2039.778 297.808,2039.802 L297.808,2040.918 C297.567999,2040.846 297.328001,2040.81 297.088,2040.81 C296.439997,2040.81 295.897002,2041.131 295.459,2041.773 C295.020998,2042.415 294.802,2043.126 294.802,2043.906 L294.802,2049 L293.704,2049 L293.704,2039.874 L294.802,2039.874 Z M304.378,2044.662 L302.596,2044.662 C301.743996,2044.662 301.108002,2044.827 300.688,2045.157 C300.267998,2045.487 300.058,2045.898 300.058,2046.39 C300.058,2046.894 300.222998,2047.302 300.553,2047.614 C300.883002,2047.926 301.365997,2048.082 302.002,2048.082 C302.722004,2048.082 303.297998,2047.884 303.73,2047.488 C304.162002,2047.092 304.378,2046.588 304.378,2045.976 L304.378,2044.662 Z M299.554,2041.548 L299.554,2040.36 C300.250003,2039.94 301.107995,2039.73 302.128,2039.73 C304.360011,2039.73 305.476,2040.89999 305.476,2043.24 L305.476,2049 L304.378,2049 L304.378,2047.938 C303.873997,2048.706 302.998006,2049.09 301.75,2049.09 C300.909996,2049.09 300.223003,2048.841 299.689,2048.343 C299.154997,2047.845 298.888,2047.206 298.888,2046.426 C298.888,2045.55 299.226997,2044.869 299.905,2044.383 C300.583003,2043.897 301.479994,2043.654 302.596,2043.654 L304.378,2043.654 L304.378,2043.24 C304.378,2042.424 304.204002,2041.809 303.856,2041.395 C303.507998,2040.981 302.926004,2040.774 302.11,2040.774 C301.161995,2040.774 300.310004,2041.032 299.554,2041.548 Z M312.154,2036.292 L312.154,2037.372 C311.901999,2037.276 311.638001,2037.228 311.362,2037.228 C311.001998,2037.228 310.693001,2037.369 310.435,2037.651 C310.176999,2037.933 310.048,2038.356 310.048,2038.92 L310.048,2039.874 L312.136,2039.874 L312.136,2040.81 L310.048,2040.81 L310.048,2049 L308.95,2049 L308.95,2040.81 L307.276,2040.81 L307.276,2039.874 L308.95,2039.874 L308.95,2038.902 C308.95,2038.074 309.165998,2037.414 309.598,2036.922 C310.030002,2036.43 310.635996,2036.184 311.416,2036.184 C311.644001,2036.184 311.889999,2036.22 312.154,2036.292 Z M315.646,2040.81 L315.646,2046.48 C315.646,2047.52401 316.131995,2048.046 317.104,2048.046 C317.584002,2048.046 317.991998,2047.908 318.328,2047.632 L318.328,2048.748 C317.979998,2048.976 317.578002,2049.09 317.122,2049.09 C315.393991,2049.09 314.53,2048.20201 314.53,2046.426 L314.53,2040.81 L313.036,2040.81 L313.036,2039.874 L314.53,2039.874 L314.53,2037.588 L315.646,2037.588 L315.646,2039.874 L318.256,2039.874 L318.256,2040.81 L315.646,2040.81 Z M328.714,2048.1 C329.530004,2048.1 330.201997,2047.773 330.73,2047.119 C331.258003,2046.465 331.522,2045.53201 331.522,2044.32 C331.522,2043.27599 331.267003,2042.424 330.757,2041.764 C330.246997,2041.104 329.602004,2040.774 328.822,2040.774 C328.041996,2040.774 327.370003,2041.059 326.806,2041.629 C326.241997,2042.199 325.96,2043.14999 325.96,2044.482 C325.96,2045.154 326.052999,2045.739 326.239,2046.237 C326.425001,2046.735 326.664999,2047.113 326.959,2047.371 C327.253001,2047.629 327.546999,2047.815 327.841,2047.929 C328.135001,2048.043 328.425999,2048.1 328.714,2048.1 Z M325.96,2039.874 L325.96,2041.206 C326.596003,2040.222 327.537994,2039.73 328.786,2039.73 C330.010006,2039.73 330.963997,2040.177 331.648,2041.071 C332.332003,2041.965 332.674,2043.05399 332.674,2044.338 C332.674,2045.75401 332.308004,2046.909 331.576,2047.803 C330.843996,2048.697 329.902006,2049.144 328.75,2049.144 C327.561994,2049.144 326.632003,2048.64001 325.96,2047.632 L325.96,2052.6 L324.862,2052.6 L324.862,2039.874 L325.96,2039.874 Z M339.874,2044.662 L338.092,2044.662 C337.239996,2044.662 336.604002,2044.827 336.184,2045.157 C335.763998,2045.487 335.554,2045.898 335.554,2046.39 C335.554,2046.894 335.718998,2047.302 336.049,2047.614 C336.379002,2047.926 336.861997,2048.082 337.498,2048.082 C338.218004,2048.082 338.793998,2047.884 339.226,2047.488 C339.658002,2047.092 339.874,2046.588 339.874,2045.976 L339.874,2044.662 Z M335.05,2041.548 L335.05,2040.36 C335.746003,2039.94 336.603995,2039.73 337.624,2039.73 C339.856011,2039.73 340.972,2040.89999 340.972,2043.24 L340.972,2049 L339.874,2049 L339.874,2047.938 C339.369997,2048.706 338.494006,2049.09 337.246,2049.09 C336.405996,2049.09 335.719003,2048.841 335.185,2048.343 C334.650997,2047.845 334.384,2047.206 334.384,2046.426 C334.384,2045.55 334.722997,2044.869 335.401,2044.383 C336.079003,2043.897 336.975994,2043.654 338.092,2043.654 L339.874,2043.654 L339.874,2043.24 C339.874,2042.424 339.700002,2041.809 339.352,2041.395 C339.003998,2040.981 338.422004,2040.774 337.606,2040.774 C336.657995,2040.774 335.806004,2041.032 335.05,2041.548 Z M345.292,2040.81 L345.292,2046.48 C345.292,2047.52401 345.777995,2048.046 346.75,2048.046 C347.230002,2048.046 347.637998,2047.908 347.974,2047.632 L347.974,2048.748 C347.625998,2048.976 347.224002,2049.09 346.768,2049.09 C345.039991,2049.09 344.176,2048.20201 344.176,2046.426 L344.176,2040.81 L342.682,2040.81 L342.682,2039.874 L344.176,2039.874 L344.176,2037.588 L345.292,2037.588 L345.292,2039.874 L347.902,2039.874 L347.902,2040.81 L345.292,2040.81 Z M351.844,2040.81 L351.844,2046.48 C351.844,2047.52401 352.329995,2048.046 353.302,2048.046 C353.782002,2048.046 354.189998,2047.908 354.526,2047.632 L354.526,2048.748 C354.177998,2048.976 353.776002,2049.09 353.32,2049.09 C351.591991,2049.09 350.728,2048.20201 350.728,2046.426 L350.728,2040.81 L349.234,2040.81 L349.234,2039.874 L350.728,2039.874 L350.728,2037.588 L351.844,2037.588 L351.844,2039.874 L354.454,2039.874 L354.454,2040.81 L351.844,2040.81 Z M362.68,2043.924 L362.68,2043.51 C362.68,2042.682 362.449002,2042.022 361.987,2041.53 C361.524998,2041.038 360.904004,2040.792 360.124,2040.792 C359.355996,2040.792 358.714003,2041.062 358.198,2041.602 C357.681997,2042.142 357.382,2042.91599 357.298,2043.924 L362.68,2043.924 Z M363.238,2047.434 L363.238,2048.55 C362.517996,2048.91 361.678005,2049.09 360.718,2049.09 C359.361993,2049.09 358.261004,2048.667 357.415,2047.821 C356.568996,2046.975 356.146,2045.86201 356.146,2044.482 C356.146,2043.01799 356.517996,2041.866 357.262,2041.026 C358.006004,2040.186 358.971994,2039.766 360.16,2039.766 C361.276006,2039.766 362.163997,2040.132 362.824,2040.864 C363.484003,2041.596 363.814,2042.62799 363.814,2043.96 C363.814,2044.368 363.79,2044.692 363.742,2044.932 L357.298,2044.932 C357.382,2045.94001 357.729997,2046.711 358.342,2047.245 C358.954003,2047.779 359.763995,2048.046 360.772,2048.046 C361.804005,2048.046 362.625997,2047.842 363.238,2047.434 Z M367.144,2039.874 L367.144,2041.422 C367.648003,2040.31799 368.499994,2039.766 369.7,2039.766 C369.784,2039.766 369.933999,2039.778 370.15,2039.802 L370.15,2040.918 C369.909999,2040.846 369.670001,2040.81 369.43,2040.81 C368.781997,2040.81 368.239002,2041.131 367.801,2041.773 C367.362998,2042.415 367.144,2043.126 367.144,2043.906 L367.144,2049 L366.046,2049 L366.046,2039.874 L367.144,2039.874 Z M372.796,2039.874 L372.796,2041.44 C373.360003,2040.29999 374.325993,2039.73 375.694,2039.73 C376.570004,2039.73 377.271997,2040 377.8,2040.54 C378.328003,2041.08 378.592,2041.776 378.592,2042.628 L378.592,2049 L377.494,2049 L377.494,2042.97 C377.494,2042.262 377.314002,2041.722 376.954,2041.35 C376.593998,2040.978 376.120003,2040.792 375.532,2040.792 C374.787996,2040.792 374.146003,2041.077 373.606,2041.647 C373.065997,2042.217 372.796,2042.988 372.796,2043.96 L372.796,2049 L371.698,2049 L371.698,2039.874 L372.796,2039.874 Z M385.99,2040.198 L385.99,2041.296 C385.425997,2040.972 384.664005,2040.81 383.704,2040.81 C383.175997,2040.81 382.759002,2040.933 382.453,2041.179 C382.146998,2041.425 381.994,2041.746 381.994,2042.142 C381.994,2042.382 382.039,2042.592 382.129,2042.772 C382.219,2042.952 382.374999,2043.117 382.597,2043.267 C382.819001,2043.417 383.007999,2043.528 383.164,2043.6 C383.320001,2043.672 383.571998,2043.78 383.92,2043.924 C384.760004,2044.26 385.404998,2044.629 385.855,2045.031 C386.305002,2045.433 386.53,2045.976 386.53,2046.66 C386.53,2047.416 386.269003,2048.013 385.747,2048.451 C385.224997,2048.889 384.508005,2049.108 383.596,2049.108 C382.491994,2049.108 381.604003,2048.928 380.932,2048.568 L380.932,2047.434 C381.736004,2047.89 382.599995,2048.118 383.524,2048.118 C384.136003,2048.118 384.600998,2047.992 384.919,2047.74 C385.237002,2047.488 385.396,2047.158 385.396,2046.75 C385.396,2046.27 385.231002,2045.898 384.901,2045.634 C384.570998,2045.37 384.028004,2045.088 383.272,2044.788 C382.539996,2044.5 381.958002,2044.164 381.526,2043.78 C381.093998,2043.396 380.878,2042.868 380.878,2042.196 C380.878,2041.464 381.147997,2040.879 381.688,2040.441 C382.228003,2040.003 382.905996,2039.784 383.722,2039.784 C384.706005,2039.784 385.461997,2039.922 385.99,2040.198 Z" id="An-easier-way-to-fol"></path>
        </g>
    </g>
</svg>