<?xml version="1.0" encoding="UTF-8"?>
<svg width="118px" height="23px" viewBox="0 0 118 23" version="1.1" xmlns="http://www.w3.org/2000/svg" xmlns:xlink="http://www.w3.org/1999/xlink">
    <!-- Generator: Sketch 51 (57462) - http://www.bohemiancoding.com/sketch -->
    <title>Drop Stitch</title>
    <desc>Created with Sketch.</desc>
    <defs></defs>
    <g id="Portfolio" stroke="none" stroke-width="1" fill="none" fill-rule="evenodd">
        <g id="Desktop" transform="translate(-272.000000, -1977.000000)" fill="#323232">
            <path d="M275.776,1992.48 L277.912,1992.48 C279.608008,1992.48 280.895996,1991.95601 281.776,1990.908 C282.656004,1989.85999 283.096,1988.45601 283.096,1986.696 C283.096,1985.14399 282.628005,1983.86801 281.692,1982.868 C280.755995,1981.868 279.480008,1981.368 277.864,1981.368 L275.776,1981.368 L275.776,1992.48 Z M272.68,1978.824 L277.96,1978.824 C280.376012,1978.824 282.351992,1979.56799 283.888,1981.056 C285.424008,1982.54401 286.192,1984.42399 286.192,1986.696 C286.192,1989.17601 285.448007,1991.17999 283.96,1992.708 C282.471993,1994.23601 280.472013,1995 277.96,1995 L272.68,1995 L272.68,1978.824 Z M291.64,1982.832 L291.64,1984.992 C292.200003,1983.48799 293.223993,1982.736 294.712,1982.736 C295.048002,1982.736 295.319999,1982.76 295.528,1982.808 L295.528,1985.592 C295.159998,1985.432 294.752002,1985.352 294.304,1985.352 C293.519996,1985.352 292.880002,1985.672 292.384,1986.312 C291.887998,1986.952 291.64,1987.752 291.64,1988.712 L291.64,1995 L288.736,1995 L288.76,1982.832 L291.64,1982.832 Z M302.44,1995.192 C300.599991,1995.192 299.164005,1994.61601 298.132,1993.464 C297.099995,1992.31199 296.584,1990.84001 296.584,1989.048 C296.584,1987.19199 297.119995,1985.66001 298.192,1984.452 C299.264005,1983.24399 300.679991,1982.64 302.44,1982.64 C304.312009,1982.64 305.759995,1983.22799 306.784,1984.404 C307.808005,1985.58001 308.32,1987.07199 308.32,1988.88 C308.32,1990.72001 307.804005,1992.23199 306.772,1993.416 C305.739995,1994.60001 304.296009,1995.192 302.44,1995.192 Z M302.44,1984.992 C301.527995,1984.992 300.828002,1985.368 300.34,1986.12 C299.851998,1986.872 299.608,1987.81599 299.608,1988.952 C299.608,1990.07201 299.855998,1991.008 300.352,1991.76 C300.848002,1992.512 301.551995,1992.888 302.464,1992.888 C303.408005,1992.888 304.119998,1992.52 304.6,1991.784 C305.080002,1991.048 305.32,1990.11201 305.32,1988.976 C305.32,1987.80799 305.088002,1986.852 304.624,1986.108 C304.159998,1985.364 303.432005,1984.992 302.44,1984.992 Z M316.696,1992.696 C317.560004,1992.696 318.263997,1992.364 318.808,1991.7 C319.352003,1991.036 319.624,1990.10401 319.624,1988.904 C319.624,1987.70399 319.352003,1986.772 318.808,1986.108 C318.263997,1985.444 317.576004,1985.112 316.744,1985.112 C315.911996,1985.112 315.192003,1985.424 314.584,1986.048 C313.975997,1986.672 313.672,1987.59999 313.672,1988.832 C313.672,1990.06401 313.967997,1991.016 314.56,1991.688 C315.152003,1992.36 315.863996,1992.696 316.696,1992.696 Z M313.672,1982.832 L313.672,1984.704 C314.536004,1983.34399 315.775992,1982.664 317.392,1982.664 C318.976008,1982.664 320.235995,1983.23199 321.172,1984.368 C322.108005,1985.50401 322.576,1986.99999 322.576,1988.856 C322.576,1990.68001 322.108005,1992.18799 321.172,1993.38 C320.235995,1994.57201 318.968008,1995.168 317.368,1995.168 C315.735992,1995.168 314.504004,1994.50401 313.672,1993.176 L313.672,1999.584 L310.792,1999.584 L310.792,1982.832 L313.672,1982.832 Z M340.12,1979.496 L340.12,1982.424 C338.919994,1981.704 337.640007,1981.344 336.28,1981.344 C335.527996,1981.344 334.940002,1981.512 334.516,1981.848 C334.091998,1982.184 333.88,1982.616 333.88,1983.144 C333.88,1983.672 334.107998,1984.108 334.564,1984.452 C335.020002,1984.796 335.703995,1985.176 336.616,1985.592 C337.256003,1985.88 337.775998,1986.132 338.176,1986.348 C338.576002,1986.564 339.011998,1986.864 339.484,1987.248 C339.956002,1987.632 340.307999,1988.092 340.54,1988.628 C340.772001,1989.164 340.888,1989.776 340.888,1990.464 C340.888,1991.90401 340.372005,1993.052 339.34,1993.908 C338.307995,1994.764 336.952008,1995.192 335.272,1995.192 C333.447991,1995.192 331.936006,1994.848 330.736,1994.16 L330.736,1991.064 C332.112007,1992.056 333.615992,1992.552 335.248,1992.552 C335.984004,1992.552 336.575998,1992.372 337.024,1992.012 C337.472002,1991.652 337.696,1991.168 337.696,1990.56 C337.696,1990.272 337.640001,1990.016 337.528,1989.792 C337.415999,1989.568 337.188002,1989.344 336.844,1989.12 C336.499998,1988.896 336.236001,1988.736 336.052,1988.64 C335.867999,1988.544 335.488003,1988.368 334.912,1988.112 C334.751999,1988.032 334.632,1987.976 334.552,1987.944 C333.959997,1987.672 333.480002,1987.428 333.112,1987.212 C332.743998,1986.996 332.344002,1986.704 331.912,1986.336 C331.479998,1985.968 331.156001,1985.528 330.94,1985.016 C330.723999,1984.504 330.616,1983.92 330.616,1983.264 C330.616,1981.88799 331.123995,1980.784 332.14,1979.952 C333.156005,1979.12 334.503992,1978.704 336.184,1978.704 C337.704008,1978.704 339.015994,1978.968 340.12,1979.496 Z M346.936,1984.992 L346.936,1991.184 C346.936,1991.696 347.071999,1992.084 347.344,1992.348 C347.616001,1992.612 347.991998,1992.744 348.472,1992.744 C349.080003,1992.744 349.639997,1992.576 350.152,1992.24 L350.152,1994.712 C349.591997,1994.984 348.872004,1995.12 347.992,1995.12 C345.367987,1995.12 344.056,1993.79201 344.056,1991.136 L344.056,1984.992 L342.232,1984.992 L342.232,1982.832 L344.056,1982.832 L344.056,1979.904 L346.936,1979.904 L346.936,1982.832 L349.96,1982.832 L349.96,1984.992 L346.936,1984.992 Z M352.648,1995 L352.648,1982.832 L355.528,1982.832 L355.528,1995 L352.648,1995 Z M352.36,1979.184 C352.36,1978.704 352.527998,1978.296 352.864,1977.96 C353.200002,1977.624 353.607998,1977.456 354.088,1977.456 C354.568002,1977.456 354.975998,1977.624 355.312,1977.96 C355.648002,1978.296 355.816,1978.704 355.816,1979.184 C355.816,1979.68 355.648002,1980.096 355.312,1980.432 C354.975998,1980.768 354.568002,1980.936 354.088,1980.936 C353.607998,1980.936 353.200002,1980.768 352.864,1980.432 C352.527998,1980.096 352.36,1979.68 352.36,1979.184 Z M362.272,1984.992 L362.272,1991.184 C362.272,1991.696 362.407999,1992.084 362.68,1992.348 C362.952001,1992.612 363.327998,1992.744 363.808,1992.744 C364.416003,1992.744 364.975997,1992.576 365.488,1992.24 L365.488,1994.712 C364.927997,1994.984 364.208004,1995.12 363.328,1995.12 C360.703987,1995.12 359.392,1993.79201 359.392,1991.136 L359.392,1984.992 L357.568,1984.992 L357.568,1982.832 L359.392,1982.832 L359.392,1979.904 L362.272,1979.904 L362.272,1982.832 L365.296,1982.832 L365.296,1984.992 L362.272,1984.992 Z M370.168,1988.952 C370.2,1990.10401 370.547997,1991.032 371.212,1991.736 C371.876003,1992.44 372.775994,1992.792 373.912,1992.792 C374.904005,1992.792 375.823996,1992.52 376.672,1991.976 L376.672,1994.472 C375.823996,1994.968 374.768006,1995.216 373.504,1995.216 C371.631991,1995.216 370.116006,1994.62401 368.956,1993.44 C367.795994,1992.25599 367.216,1990.76001 367.216,1988.952 C367.232,1987.17599 367.811994,1985.68001 368.956,1984.464 C370.100006,1983.24799 371.66399,1982.64 373.648,1982.64 C374.832006,1982.64 375.839996,1982.864 376.672,1983.312 L376.672,1985.856 C375.871996,1985.344 374.960005,1985.088 373.936,1985.088 C372.815994,1985.088 371.912003,1985.44 371.224,1986.144 C370.535997,1986.848 370.184,1987.78399 370.168,1988.952 Z M382.024,1978.032 L382.024,1984.896 C382.680003,1983.42399 383.919991,1982.688 385.744,1982.688 C386.928006,1982.688 387.883996,1983.06 388.612,1983.804 C389.340004,1984.548 389.704,1985.62399 389.704,1987.032 L389.704,1995 L386.824,1995 L386.824,1987.536 C386.824,1986.768 386.628002,1986.168 386.236,1985.736 C385.843998,1985.304 385.336003,1985.088 384.712,1985.088 C384.023997,1985.088 383.404003,1985.352 382.852,1985.88 C382.299997,1986.408 382.024,1987.27199 382.024,1988.472 L382.024,1995 L379.144,1995 L379.144,1978.032 L382.024,1978.032 Z" id="Drop-Stitch"></path>
        </g>
    </g>
</svg>