<?xml version="1.0" encoding="UTF-8"?>
<svg width="233px" height="21px" viewBox="0 0 233 21" version="1.1" xmlns="http://www.w3.org/2000/svg" xmlns:xlink="http://www.w3.org/1999/xlink">
    <!-- Generator: Sketch 51 (57462) - http://www.bohemiancoding.com/sketch -->
    <title>Group 5</title>
    <desc>Created with Sketch.</desc>
    <defs></defs>
    <g id="Portfolio" stroke="none" stroke-width="1" fill="none" fill-rule="evenodd">
        <g id="Desktop" transform="translate(-105.000000, -1308.000000)" fill="#323232">
            <g id="Group" transform="translate(105.000000, 1308.000000)">
                <g id="Group-5">
                    <path d="M26.3745699,18.7710714 L18.0593703,4.745 C17.9454634,4.51785714 17.7176497,4.40428571 17.489836,4.40428571 C17.2620223,4.40428571 17.0342087,4.51785714 16.8633484,4.745 L13.3322362,10.0828571 L9.117683,1.1675 C9.00377616,0.940357143 8.77596247,0.77 8.49119536,0.77 C8.49119536,0.77 8.49119536,0.77 8.49119536,0.77 C8.20642825,0.77 7.97861457,0.940357143 7.86470772,1.1675 L0.0620889088,18.8278571 C-0.0518179351,19.055 0.00513548686,19.2821429 0.119042331,19.5092857 C0.232949175,19.7364286 0.460762863,19.85 0.688576551,19.85 L3.19452712,19.85 C3.59320107,19.85 3.87796818,19.5092857 3.87796818,19.1685714 C3.87796818,18.8278571 3.53624765,18.4871429 3.19452712,18.4871429 L1.77069157,18.4871429 L5.58657084,9.85571429 L6.38391875,10.8210714 C6.49782559,10.9914286 6.72563928,11.0482143 6.95345297,11.0482143 C7.18126666,11.0482143 7.35212692,10.9346429 7.52298719,10.7642857 L8.49119536,9.515 L9.51635696,10.7642857 C9.6302638,10.9346429 9.85807749,11.0482143 10.0858912,11.0482143 C10.0858912,11.0482143 10.0858912,11.0482143 10.0858912,11.0482143 C10.3137049,11.0482143 10.4845651,10.9346429 10.6554254,10.7642857 L11.5666802,9.62857143 L12.5918417,11.8432143 C12.7057486,12.0703571 12.9335623,12.2407143 13.161376,12.2407143 C13.4461431,12.2407143 13.6739568,12.1271429 13.7878636,11.9 L17.3759292,6.44857143 L24.4381535,18.4303571 L7.35212692,18.4303571 C6.95345297,18.4303571 6.66868586,18.7710714 6.66868586,19.1117857 C6.66868586,19.4525 7.01040639,19.7932143 7.35212692,19.7932143 L25.7480822,19.7932143 C25.9758959,19.7932143 26.260663,19.6796429 26.3745699,19.4525 C26.4884767,19.2253571 26.4884767,18.9982143 26.3745699,18.7710714 Z M10.0858912,9.17428571 L9.06072958,7.86821429 C8.94682274,7.69785714 8.71900905,7.58428571 8.49119536,7.58428571 C8.49119536,7.58428571 8.49119536,7.58428571 8.49119536,7.58428571 C8.26338168,7.58428571 8.09252141,7.69785714 7.92166114,7.86821429 L6.89649955,9.17428571 L6.21305848,8.37928571 L8.49119536,3.21178571 L10.8262857,8.20892857 L10.0858912,9.17428571 Z" id="Shape" fill-rule="nonzero"></path>
                    <path d="M35.0856,5.01824 L35.0856,20 L32.7528,20 L32.7528,1.856 L36.01872,1.856 L44.028,16.94144 L44.028,1.856 L46.3608,1.856 L46.3608,20 L43.14672,20 L35.0856,5.01824 Z M60.77232,13.2608 C60.77232,12.5868766 60.6643211,11.947523 60.44832,11.34272 C60.2323189,10.737917 59.9299219,10.2108822 59.54112,9.7616 C59.1523181,9.31231775 58.6944026,8.95376134 58.16736,8.68592 C57.6403174,8.41807866 57.0657631,8.28416 56.44368,8.28416 C55.0785532,8.28416 54.0158438,8.73343551 53.25552,9.632 C52.4951962,10.5305645 52.11504,11.7228726 52.11504,13.20896 C52.11504,13.8828834 52.2230389,14.5265569 52.43904,15.14 C52.6550411,15.7534431 52.9574381,16.2891177 53.34624,16.74704 C53.7350419,17.2049623 54.1929574,17.5678387 54.72,17.83568 C55.2470426,18.1035213 55.8215969,18.23744 56.44368,18.23744 C57.1176034,18.23744 57.7223973,18.1164812 58.25808,17.87456 C58.7937627,17.6326388 59.2473581,17.2913622 59.61888,16.85072 C59.9904019,16.4100778 60.275519,15.887363 60.47424,15.28256 C60.672961,14.677757 60.77232,14.0038437 60.77232,13.2608 Z M49.7304,13.2608 C49.7304,12.1721546 49.9031983,11.1915244 50.2488,10.31888 C50.5944017,9.44623564 51.065277,8.70752302 51.66144,8.10272 C52.257603,7.49791698 52.9660759,7.03136164 53.78688,6.70304 C54.6076841,6.37471836 55.4932752,6.21056 56.44368,6.21056 C57.3768047,6.21056 58.2537559,6.37471836 59.07456,6.70304 C59.8953641,7.03136164 60.608157,7.49791698 61.21296,8.10272 C61.817763,8.70752302 62.2929583,9.44191568 62.63856,10.30592 C62.9841617,11.1699243 63.15696,12.1375946 63.15696,13.20896 C63.15696,14.2803254 62.9884817,15.2523156 62.65152,16.12496 C62.3145583,16.9976044 61.843683,17.7449569 61.23888,18.36704 C60.634077,18.9891231 59.9212841,19.4686383 59.10048,19.8056 C58.2796759,20.1425617 57.3940848,20.31104 56.44368,20.31104 C55.4759952,20.31104 54.5817641,20.1382417 53.76096,19.79264 C52.9401559,19.4470383 52.231683,18.9632031 51.63552,18.34112 C51.039357,17.7190369 50.5728017,16.9760043 50.23584,16.112 C49.8988783,15.2479957 49.7304,14.2976052 49.7304,13.2608 Z M73.5768,8.77664 C73.2484784,8.63839931 72.8596822,8.56928 72.4104,8.56928 C71.9265576,8.56928 71.4556823,8.67295896 70.99776,8.88032 C70.5398377,9.08768104 70.1337618,9.39871793 69.77952,9.81344 C69.4252782,10.2281621 69.1401611,10.7595168 68.92416,11.40752 C68.7081589,12.0555232 68.60016,12.8201556 68.60016,13.70144 L68.60016,20 L66.26736,20 L66.26736,6.5216 L68.5224,6.5216 L68.5224,9.45056 C68.6779208,9.03583793 68.8852787,8.62976199 69.14448,8.23232 C69.4036813,7.83487801 69.7103982,7.48928147 70.06464,7.19552 C70.4188818,6.90175853 70.8292777,6.66416091 71.29584,6.48272 C71.7624023,6.30127909 72.2807971,6.21056 72.85104,6.21056 C73.1102413,6.21056 73.3651187,6.22351987 73.61568,6.24944 C73.8662413,6.27536013 74.086559,6.31423974 74.27664,6.36608 L73.5768,8.77664 Z M78.19056,2.7632 L79.97904,2.7632 L79.97904,7.01408 L83.71152,7.01408 L83.71152,9.03584 L79.97904,9.03584 L79.97904,15.54176 C79.97904,16.0428825 80.0351994,16.4662383 80.14752,16.81184 C80.2598406,17.1574417 80.411039,17.433919 80.60112,17.64128 C80.791201,17.848641 81.0201587,17.9998395 81.288,18.09488 C81.5558413,18.1899205 81.8366385,18.23744 82.1304,18.23744 C82.5624022,18.23744 82.9684781,18.1683207 83.34864,18.03008 C83.7288019,17.8918393 84.0916783,17.727681 84.43728,17.5376 L85.08528,19.40384 C84.7396783,19.611201 84.2731229,19.814239 83.6856,20.01296 C83.0980771,20.211681 82.4846432,20.31104 81.84528,20.31104 C80.5492735,20.31104 79.5254438,19.8876842 78.77376,19.04096 C78.0220762,18.1942358 77.64624,16.967368 77.64624,15.36032 L77.64624,9.03584 L75.31344,9.03584 L75.31344,7.01408 L77.69808,7.01408 L78.19056,2.7632 Z M89.75088,8.67296 C90.2347224,7.96447646 90.8438363,7.37696233 91.57824,6.9104 C92.3126437,6.44383767 93.1895949,6.21056 94.20912,6.21056 C95.7297676,6.21056 96.8659162,6.66847542 97.6176,7.58432 C98.3692838,8.50016458 98.74512,9.70975248 98.74512,11.21312 L98.74512,20 L96.41232,20 L96.41232,11.47232 C96.41232,10.4873551 96.1920022,9.70544289 95.75136,9.12656 C95.3107178,8.54767711 94.6756841,8.25824 93.84624,8.25824 C93.448798,8.25824 93.0556819,8.33167927 92.66688,8.47856 C92.2780781,8.62544073 91.9108817,8.8284787 91.56528,9.08768 C91.2196783,9.3468813 90.8913616,9.64927827 90.58032,9.99488 C90.2692784,10.3404817 89.9928012,10.7033581 89.75088,11.08352 L89.75088,20 L87.41808,20 L87.41808,0.8192 L89.75088,0.8192 L89.75088,8.67296 Z M119.17008,6.392 L121.24368,7.14368 L116.96688,20 L114.4008,20 L111.2904,9.96896 L108.15408,20 L105.588,20 L101.33712,7.14368 L103.48848,6.392 L106.96176,17.35616 L110.124,7.48064 L112.63824,7.48064 L115.72272,17.35616 L119.17008,6.392 Z M125.18352,14.21984 C125.339041,15.4812863 125.779676,16.4662365 126.50544,17.17472 C127.231204,17.8832035 128.190234,18.23744 129.38256,18.23744 C130.160164,18.23744 130.859997,18.1553608 131.48208,17.9912 C132.104163,17.8270392 132.700317,17.6153613 133.27056,17.35616 L133.81488,19.352 C133.192797,19.6457615 132.492964,19.8790391 131.71536,20.05184 C130.937756,20.2246409 130.065125,20.31104 129.09744,20.31104 C128.129755,20.31104 127.257124,20.1512016 126.47952,19.83152 C125.701916,19.5118384 125.040963,19.053923 124.49664,18.45776 C123.952317,17.861597 123.533281,17.1272044 123.23952,16.25456 C122.945759,15.3819156 122.79888,14.3840056 122.79888,13.2608 C122.79888,12.258555 122.945759,11.3254443 123.23952,10.46144 C123.533281,9.59743568 123.947997,8.85008315 124.48368,8.21936 C125.019363,7.58863685 125.658716,7.09616177 126.40176,6.74192 C127.144804,6.38767823 127.974235,6.21056 128.89008,6.21056 C129.857765,6.21056 130.704476,6.37471836 131.43024,6.70304 C132.156004,7.03136164 132.760798,7.48063715 133.24464,8.05088 C133.728482,8.62112285 134.091359,9.2863962 134.33328,10.04672 C134.575201,10.8070438 134.69616,11.6105558 134.69616,12.45728 C134.69616,13.062083 134.67024,13.6495971 134.6184,14.21984 L125.18352,14.21984 Z M128.83824,8.23232 C127.818715,8.23232 126.984963,8.57791654 126.33696,9.26912 C125.688957,9.96032346 125.295841,10.9798333 125.1576,12.32768 L132.5448,12.32768 C132.5448,11.0143934 132.216483,10.0035235 131.55984,9.29504 C130.903197,8.58655646 129.996006,8.23232 128.83824,8.23232 Z M137.62512,16.96736 C138.074402,17.364802 138.640317,17.6844788 139.32288,17.9264 C140.005443,18.1683212 140.735516,18.28928 141.51312,18.28928 C142.480805,18.28928 143.210878,18.1294416 143.70336,17.80976 C144.195842,17.4900784 144.44208,17.0796825 144.44208,16.57856 C144.44208,16.3193587 144.39456,16.0774411 144.29952,15.8528 C144.20448,15.6281589 144.031681,15.412161 143.78112,15.2048 C143.530559,14.997439 143.189282,14.794401 142.75728,14.59568 C142.325278,14.396959 141.763683,14.1766412 141.07248,13.93472 C139.793754,13.5027178 138.843363,12.988643 138.22128,12.39248 C137.599197,11.796317 137.28816,10.9712053 137.28816,9.91712 C137.28816,9.39871741 137.404799,8.91488225 137.63808,8.4656 C137.871361,8.01631775 138.208318,7.62320168 138.64896,7.28624 C139.089602,6.94927832 139.625277,6.68576095 140.256,6.49568 C140.886723,6.30559905 141.608156,6.21056 142.42032,6.21056 C143.301604,6.21056 144.074877,6.30127909 144.74016,6.48272 C145.405443,6.66416091 146.005917,6.89311862 146.5416,7.1696 L145.8936,9.08768 C145.427038,8.81119862 144.895683,8.58656086 144.29952,8.41376 C143.703357,8.24095914 143.042404,8.15456 142.31664,8.15456 C141.418076,8.15456 140.735522,8.33599819 140.26896,8.69888 C139.802398,9.06176181 139.56912,9.45919784 139.56912,9.8912 C139.56912,10.098561 139.608,10.2886391 139.68576,10.46144 C139.76352,10.6342409 139.906079,10.7983992 140.11344,10.95392 C140.320801,11.1094408 140.597278,11.2649592 140.94288,11.42048 C141.288482,11.5760008 141.720477,11.7401591 142.23888,11.91296 C143.085604,12.2067215 143.802717,12.5047985 144.39024,12.8072 C144.977763,13.1096015 145.452958,13.4422382 145.81584,13.80512 C146.178722,14.1680018 146.437919,14.5611179 146.59344,14.98448 C146.748961,15.4078421 146.82672,15.8787174 146.82672,16.39712 C146.82672,17.001923 146.697121,17.5462376 146.43792,18.03008 C146.178719,18.5139224 145.815842,18.9243183 145.34928,19.26128 C144.882718,19.5982417 144.316803,19.8574391 143.65152,20.03888 C142.986237,20.2203209 142.247524,20.31104 141.43536,20.31104 C140.398555,20.31104 139.474084,20.1814413 138.66192,19.92224 C137.849756,19.6630387 137.175843,19.3260821 136.64016,18.91136 L137.62512,16.96736 Z M150.99984,2.7632 L152.78832,2.7632 L152.78832,7.01408 L156.5208,7.01408 L156.5208,9.03584 L152.78832,9.03584 L152.78832,15.54176 C152.78832,16.0428825 152.844479,16.4662383 152.9568,16.81184 C153.069121,17.1574417 153.220319,17.433919 153.4104,17.64128 C153.600481,17.848641 153.829439,17.9998395 154.09728,18.09488 C154.365121,18.1899205 154.645919,18.23744 154.93968,18.23744 C155.371682,18.23744 155.777758,18.1683207 156.15792,18.03008 C156.538082,17.8918393 156.900958,17.727681 157.24656,17.5376 L157.89456,19.40384 C157.548958,19.611201 157.082403,19.814239 156.49488,20.01296 C155.907357,20.211681 155.293923,20.31104 154.65456,20.31104 C153.358554,20.31104 152.334724,19.8876842 151.58304,19.04096 C150.831356,18.1942358 150.45552,16.967368 150.45552,15.36032 L150.45552,9.03584 L148.12272,9.03584 L148.12272,7.01408 L150.50736,7.01408 L150.99984,2.7632 Z M167.95152,16.39712 C168.573603,16.9155226 169.273436,17.3388784 170.05104,17.6672 C170.828644,17.9955216 171.735835,18.15968 172.77264,18.15968 C174.016806,18.15968 175.001756,17.9004826 175.72752,17.38208 C176.453284,16.8636774 176.81616,16.1638444 176.81616,15.28256 C176.81616,14.9196782 176.764321,14.5827216 176.66064,14.27168 C176.556959,13.9606384 176.353922,13.6625614 176.05152,13.37744 C175.749118,13.0923186 175.325763,12.8072014 174.78144,12.52208 C174.237117,12.2369586 173.532964,11.9302416 172.66896,11.60192 C171.735835,11.2390382 170.945283,10.8804818 170.29728,10.52624 C169.649277,10.1719982 169.126562,9.78320212 168.72912,9.35984 C168.331678,8.93647788 168.046561,8.46992255 167.87376,7.96016 C167.700959,7.45039745 167.61456,6.86720328 167.61456,6.21056 C167.61456,5.5711968 167.748479,4.96640285 168.01632,4.39616 C168.284161,3.82591715 168.681597,3.32912212 169.20864,2.90576 C169.735683,2.48239788 170.383676,2.14976121 171.15264,1.90784 C171.921604,1.66591879 172.798555,1.54496 173.78352,1.54496 C174.854885,1.54496 175.813916,1.65295892 176.66064,1.86896 C177.507364,2.08496108 178.345436,2.39167801 179.17488,2.78912 L178.26768,4.88864 C177.680157,4.54303827 176.993284,4.25360117 176.20704,4.02032 C175.420796,3.78703883 174.595684,3.6704 173.73168,3.6704 C172.591194,3.6704 171.692643,3.8907178 171.036,4.33136 C170.379357,4.7720022 170.05104,5.35519637 170.05104,6.08096 C170.05104,6.42656173 170.09856,6.73327866 170.1936,7.00112 C170.28864,7.26896134 170.478719,7.52815875 170.76384,7.77872 C171.048961,8.02928125 171.446397,8.2841587 171.95616,8.54336 C172.465923,8.8025613 173.144156,9.08767844 173.99088,9.39872 C174.993125,9.7788819 175.839837,10.167678 176.53104,10.56512 C177.222243,10.962562 177.775198,11.3859178 178.18992,11.8352 C178.604642,12.2844822 178.902719,12.7683174 179.08416,13.28672 C179.265601,13.8051226 179.35632,14.3753569 179.35632,14.99744 C179.35632,15.8441642 179.192162,16.5958367 178.86384,17.25248 C178.535518,17.9091233 178.081923,18.4663977 177.50304,18.92432 C176.924157,19.3822423 176.228644,19.7278388 175.41648,19.96112 C174.604316,20.1944012 173.723045,20.31104 172.77264,20.31104 C171.511194,20.31104 170.362085,20.1425617 169.32528,19.8056 C168.288475,19.4686383 167.415844,19.0236828 166.70736,18.47072 L167.95152,16.39712 Z M183.78864,2.7632 L185.57712,2.7632 L185.57712,7.01408 L189.3096,7.01408 L189.3096,9.03584 L185.57712,9.03584 L185.57712,15.54176 C185.57712,16.0428825 185.633279,16.4662383 185.7456,16.81184 C185.857921,17.1574417 186.009119,17.433919 186.1992,17.64128 C186.389281,17.848641 186.618239,17.9998395 186.88608,18.09488 C187.153921,18.1899205 187.434719,18.23744 187.72848,18.23744 C188.160482,18.23744 188.566558,18.1683207 188.94672,18.03008 C189.326882,17.8918393 189.689758,17.727681 190.03536,17.5376 L190.68336,19.40384 C190.337758,19.611201 189.871203,19.814239 189.28368,20.01296 C188.696157,20.211681 188.082723,20.31104 187.44336,20.31104 C186.147354,20.31104 185.123524,19.8876842 184.37184,19.04096 C183.620156,18.1942358 183.24432,16.967368 183.24432,15.36032 L183.24432,9.03584 L180.91152,9.03584 L180.91152,7.01408 L183.29616,7.01408 L183.78864,2.7632 Z M195.34896,20 L193.01616,20 L193.01616,6.5216 L195.34896,6.5216 L195.34896,20 Z M194.18256,4.21472 C193.733278,4.21472 193.348802,4.0548816 193.02912,3.7352 C192.709438,3.4155184 192.5496,3.03104225 192.5496,2.58176 C192.5496,2.08063749 192.696479,1.68320147 192.99024,1.38944 C193.284001,1.09567853 193.681437,0.9488 194.18256,0.9488 C194.631842,0.9488 195.016318,1.1086384 195.336,1.42832 C195.655682,1.7480016 195.81552,2.13247775 195.81552,2.58176 C195.81552,3.08288251 195.668641,3.48031853 195.37488,3.77408 C195.081119,4.06784147 194.683683,4.21472 194.18256,4.21472 Z M200.55888,2.7632 L202.34736,2.7632 L202.34736,7.01408 L206.07984,7.01408 L206.07984,9.03584 L202.34736,9.03584 L202.34736,15.54176 C202.34736,16.0428825 202.403519,16.4662383 202.51584,16.81184 C202.628161,17.1574417 202.779359,17.433919 202.96944,17.64128 C203.159521,17.848641 203.388479,17.9998395 203.65632,18.09488 C203.924161,18.1899205 204.204959,18.23744 204.49872,18.23744 C204.930722,18.23744 205.336798,18.1683207 205.71696,18.03008 C206.097122,17.8918393 206.459998,17.727681 206.8056,17.5376 L207.4536,19.40384 C207.107998,19.611201 206.641443,19.814239 206.05392,20.01296 C205.466397,20.211681 204.852963,20.31104 204.2136,20.31104 C202.917594,20.31104 201.893764,19.8876842 201.14208,19.04096 C200.390396,18.1942358 200.01456,16.967368 200.01456,15.36032 L200.01456,9.03584 L197.68176,9.03584 L197.68176,7.01408 L200.0664,7.01408 L200.55888,2.7632 Z M217.87344,8.984 C217.372317,8.74207879 216.905762,8.56496056 216.47376,8.45264 C216.041758,8.34031944 215.557923,8.28416 215.02224,8.28416 C214.417437,8.28416 213.851523,8.39647888 213.32448,8.62112 C212.797437,8.84576112 212.343842,9.16975788 211.96368,9.59312 C211.583518,10.0164821 211.285441,10.530557 211.06944,11.13536 C210.853439,11.740163 210.74544,12.4313561 210.74544,13.20896 C210.74544,13.9174435 210.844799,14.574077 211.04352,15.17888 C211.242241,15.783683 211.523038,16.3150377 211.88592,16.77296 C212.248802,17.2308823 212.680797,17.5894387 213.18192,17.84864 C213.683043,18.1078413 214.244637,18.23744 214.86672,18.23744 C215.523363,18.23744 216.084958,18.1683207 216.55152,18.03008 C217.018082,17.8918393 217.519197,17.6758415 218.05488,17.38208 L218.78064,19.352 C218.227677,19.6457615 217.622883,19.8790391 216.96624,20.05184 C216.309597,20.2246409 215.557924,20.31104 214.7112,20.31104 C213.743515,20.31104 212.870884,20.1382417 212.09328,19.79264 C211.315676,19.4470383 210.650403,18.9632031 210.09744,18.34112 C209.544477,17.7190369 209.116802,16.9760043 208.8144,16.112 C208.511998,15.2479957 208.3608,14.2976052 208.3608,13.2608 C208.3608,12.2931152 208.511998,11.3816043 208.8144,10.52624 C209.116802,9.67087572 209.553117,8.9235232 210.12336,8.28416 C210.693603,7.6447968 211.380476,7.13936186 212.184,6.76784 C212.987524,6.39631814 213.890395,6.21056 214.89264,6.21056 C215.670244,6.21056 216.344157,6.27967931 216.9144,6.41792 C217.484643,6.55616069 218.037597,6.7548787 218.57328,7.01408 L217.87344,8.984 Z M223.83504,8.67296 C224.318882,7.96447646 224.927996,7.37696233 225.6624,6.9104 C226.396804,6.44383767 227.273755,6.21056 228.29328,6.21056 C229.813928,6.21056 230.950076,6.66847542 231.70176,7.58432 C232.453444,8.50016458 232.82928,9.70975248 232.82928,11.21312 L232.82928,20 L230.49648,20 L230.49648,11.47232 C230.49648,10.4873551 230.276162,9.70544289 229.83552,9.12656 C229.394878,8.54767711 228.759844,8.25824 227.9304,8.25824 C227.532958,8.25824 227.139842,8.33167927 226.75104,8.47856 C226.362238,8.62544073 225.995042,8.8284787 225.64944,9.08768 C225.303838,9.3468813 224.975522,9.64927827 224.66448,9.99488 C224.353438,10.3404817 224.076961,10.7033581 223.83504,11.08352 L223.83504,20 L221.50224,20 L221.50224,0.8192 L223.83504,0.8192 L223.83504,8.67296 Z" id="Northwest-Stitch"></path>
                </g>
            </g>
        </g>
    </g>
</svg>